<svg width="161" height="56" viewBox="0 0 161 56" fill="none" xmlns="http://www.w3.org/2000/svg">
<g clip-path="url(#clip0_2128_290)">
<path d="M137.88 32H3.21268C2.79096 32.0005 2.37332 31.9178 1.98356 31.7566C1.5938 31.5955 1.2396 31.359 0.941218 31.0607C0.642841 30.7624 0.40612 30.4082 0.244619 30.0182C0.0831185 29.6283 -3.13587e-07 29.2103 0 28.7882V3.21568C0 2.36283 0.338483 1.54491 0.940979 0.941851C1.54348 0.338796 2.36062 0 3.21268 0H137.88C138.512 5.85537e-05 139.13 0.186722 139.656 0.536607L159.308 13.3209C159.75 13.6143 160.112 14.0125 160.362 14.4799C160.613 14.9473 160.744 15.4695 160.744 16C160.744 16.5304 160.613 17.0527 160.362 17.5201C160.112 17.9875 159.75 18.3857 159.308 18.6791L139.644 31.4595C139.122 31.8088 138.508 31.9967 137.88 32Z" fill="#FD6A05"/>
<path d="M147.024 14.6291L137.429 9.08296C137.191 8.94501 136.92 8.87261 136.644 8.87305C136.369 8.87349 136.098 8.94677 135.86 9.08548C135.621 9.22419 135.424 9.42341 135.287 9.663C135.151 9.90259 135.08 10.174 135.082 10.4499V21.5383C135.08 21.8138 135.152 22.0848 135.289 22.3238C135.426 22.5629 135.623 22.7615 135.861 22.8998C136.1 23.038 136.37 23.1109 136.645 23.1112C136.92 23.1115 137.191 23.0391 137.429 22.9013L147.024 17.3591C147.266 17.2227 147.468 17.0245 147.608 16.7846C147.748 16.5447 147.821 16.2719 147.821 15.9941C147.821 15.7163 147.748 15.4435 147.608 15.2036C147.468 14.9637 147.266 14.7655 147.024 14.6291Z" fill="white"/>
<path d="M29.0785 9.07124C29.0755 9.24602 29.0506 9.41974 29.0041 9.58825L25.3179 23.2656C25.1969 23.8397 24.8757 24.352 24.4118 24.7108C23.948 25.0696 23.3717 25.2515 22.7861 25.224C22.1933 25.2465 21.612 25.0553 21.1481 24.6851C20.6842 24.3149 20.3684 23.7904 20.2583 23.2069C18.4856 16 17.9456 13.7361 17.7734 11.9148C17.5543 13.834 16.8421 16.9361 15.1438 23.2734C15.0343 23.8438 14.7234 24.3556 14.2678 24.7152C13.8122 25.0749 13.2425 25.2582 12.6628 25.2318C12.0859 25.2586 11.5181 25.0807 11.0593 24.7297C10.6005 24.3786 10.2801 23.8768 10.1545 23.3126L6.49572 9.67442C6.44614 9.50658 6.42112 9.33243 6.42139 9.15741C6.44376 8.67601 6.65463 8.2228 7.00836 7.89586C7.36209 7.56892 7.83021 7.39456 8.31142 7.41053C8.71775 7.40263 9.11371 7.53918 9.42895 7.79591C9.74419 8.05264 9.9583 8.41292 10.0332 8.81273C11.8998 16.2546 12.4906 18.8514 12.835 20.9156C13.1559 18.7535 13.7937 16.1684 15.4647 9.30624C15.809 7.92754 16.7403 7.38703 17.8478 7.38703C18.4098 7.3615 18.9623 7.53884 19.4047 7.88677C19.8472 8.23471 20.1501 8.7301 20.2583 9.28274C21.9292 15.8747 22.6061 18.7261 22.9348 20.7197C23.2048 18.7261 23.8192 16.1214 25.6153 8.76573C25.6808 8.37474 25.8868 8.02119 26.1946 7.77161C26.5023 7.52202 26.8905 7.39361 27.2863 7.41053C27.513 7.40109 27.7395 7.43664 27.9525 7.51511C28.1655 7.59358 28.3609 7.71343 28.5275 7.86777C28.694 8.02211 28.8285 8.2079 28.923 8.41444C29.0176 8.62098 29.0704 8.84419 29.0785 9.07124Z" fill="white"/>
<path d="M33.8758 25.0359C32.6706 25.0359 32.0054 24.374 32.0054 23.1676V9.43937C32.0054 8.23692 32.6706 7.57108 33.8758 7.57108H41.8156C42.2422 7.57624 42.6494 7.75002 42.9485 8.05452C43.2476 8.35901 43.4142 8.76953 43.4121 9.19653C43.4091 9.61941 43.2399 10.0241 42.9412 10.3231C42.6424 10.6221 42.2381 10.7915 41.8156 10.7946H35.5546V14.6565H40.4695C40.8846 14.6565 41.2827 14.8216 41.5763 15.1154C41.8698 15.4092 42.0348 15.8077 42.0348 16.2232C42.0348 16.6387 41.8698 17.0372 41.5763 17.331C41.2827 17.6249 40.8846 17.7899 40.4695 17.7899H35.5546V21.8164H41.8156C42.2384 21.8205 42.6428 21.9907 42.9414 22.2903C43.24 22.59 43.4091 22.9951 43.4121 23.4183C43.4142 23.8449 43.2475 24.2551 42.9483 24.5589C42.6491 24.8628 42.2418 25.0357 41.8156 25.0399L33.8758 25.0359Z" fill="white"/>
<path d="M48.0295 25.036C46.9025 25.036 46.2607 24.3975 46.2607 23.2656V9.19657C46.2638 8.72071 46.454 8.26522 46.7902 7.92873C47.1264 7.59225 47.5814 7.40185 48.0569 7.39877C48.5294 7.40291 48.9811 7.59453 49.3127 7.93157C49.6443 8.26861 49.8287 8.72355 49.8256 9.19657V21.8164H55.6953C56.1219 21.8153 56.5316 21.9832 56.8351 22.2833C57.1386 22.5833 57.3112 22.9914 57.3154 23.4184C57.3123 23.8475 57.1407 24.2581 56.8375 24.5616C56.5344 24.865 56.124 25.0368 55.6953 25.0399L48.0295 25.036Z" fill="white"/>
<path d="M66.5622 25.2593C62.2578 25.2593 57.562 22.6507 57.562 16.3055C57.562 9.85853 62.3517 7.3988 66.6288 7.3988C68.0142 7.3838 69.3873 7.66001 70.6593 8.20958C70.9489 8.33319 71.1962 8.53878 71.3707 8.80111C71.5451 9.06343 71.6393 9.37106 71.6415 9.6862C71.6489 9.88089 71.6169 10.0751 71.5474 10.2571C71.4779 10.4391 71.3723 10.6051 71.2371 10.7452C71.1019 10.8853 70.9397 10.9966 70.7604 11.0724C70.5811 11.1482 70.3883 11.187 70.1937 11.1863C69.9927 11.1862 69.7931 11.1531 69.6028 11.0884C68.6804 10.7942 67.7181 10.6449 66.7501 10.6458C63.8269 10.6458 61.123 12.1733 61.123 16.3055C61.123 20.3633 63.827 21.9848 66.8009 21.9848C67.7446 21.9852 68.6823 21.8359 69.5793 21.5422C69.7775 21.477 69.985 21.444 70.1937 21.4443C70.3841 21.4441 70.5725 21.4826 70.7475 21.5577C70.9225 21.6328 71.0804 21.7428 71.2115 21.881C71.3426 22.0192 71.4442 22.1827 71.51 22.3615C71.5759 22.5403 71.6046 22.7307 71.5945 22.921C71.5982 23.2283 71.5115 23.5299 71.3452 23.7883C71.1789 24.0467 70.9404 24.2504 70.6593 24.3741C69.3745 24.9649 67.9761 25.2671 66.5622 25.2593Z" fill="white"/>
<path d="M73.2266 16.3055C73.2266 11.1119 77.0105 7.32434 82.1485 7.32434C87.2865 7.32434 91.0666 11.1393 91.0666 16.3055C91.0666 21.4717 87.306 25.2827 82.1485 25.2827C76.991 25.2827 73.2266 21.4952 73.2266 16.3055ZM87.5056 16.3055C87.5056 13.2034 85.2908 10.6693 82.1485 10.6693C79.0062 10.6693 76.7875 13.2034 76.7875 16.3055C76.7875 19.4076 79.0023 21.9378 82.1485 21.9378C85.2947 21.9378 87.5056 19.4037 87.5056 16.3055Z" fill="white"/>
<path d="M111.912 9.56477V23.4145C111.909 23.8899 111.718 24.345 111.382 24.6809C111.046 25.0168 110.591 25.2063 110.116 25.2083C109.882 25.2068 109.651 25.1592 109.435 25.0682C109.22 24.9772 109.024 24.8446 108.86 24.6781C108.696 24.5115 108.566 24.3142 108.478 24.0974C108.39 23.8805 108.345 23.6485 108.347 23.4145C108.347 16.9675 108.37 14.4842 108.519 13.18L104.215 19.1569C104.089 19.3774 103.911 19.5639 103.697 19.7004C103.483 19.8369 103.239 19.9192 102.986 19.9403C102.732 19.9219 102.487 19.8407 102.273 19.7039C102.058 19.5672 101.881 19.3792 101.757 19.1569L97.5074 13.1995C97.6561 14.4803 97.6796 16.9126 97.6796 23.434C97.6812 23.6681 97.6366 23.9001 97.5486 24.1169C97.4605 24.3337 97.3307 24.5311 97.1664 24.6976C97.0022 24.8642 96.8067 24.9968 96.5913 25.0878C96.3759 25.1788 96.1447 25.2264 95.9109 25.2279C95.4365 25.2248 94.9824 25.0349 94.647 24.6991C94.3115 24.3634 94.1217 23.9089 94.1187 23.434V9.58435C94.1187 9.01058 94.3461 8.46025 94.7511 8.05416C95.156 7.64807 95.7055 7.41942 96.2787 7.41838C96.6133 7.41559 96.9438 7.49223 97.2431 7.64202C97.5424 7.7918 97.8019 8.01046 98.0005 8.28007L103.013 15.2676L108.026 8.28007C108.224 8.01046 108.484 7.7918 108.783 7.64202C109.083 7.49223 109.413 7.41559 109.748 7.41838C110.318 7.41937 110.865 7.64522 111.27 8.04698C111.675 8.44873 111.905 8.99404 111.912 9.56477Z" fill="white"/>
<path d="M117.59 25.0359C116.385 25.0359 115.724 24.374 115.724 23.1676V9.43937C115.724 8.23692 116.385 7.57108 117.59 7.57108H125.53C125.956 7.57624 126.364 7.75002 126.663 8.05452C126.962 8.35901 127.129 8.76953 127.126 9.19653C127.122 9.61909 126.953 10.0232 126.654 10.322C126.356 10.6208 125.952 10.7905 125.53 10.7946H119.269V14.6565H124.188C124.603 14.6565 125.001 14.8216 125.295 15.1154C125.588 15.4092 125.753 15.8077 125.753 16.2232C125.753 16.6387 125.588 17.0372 125.295 17.331C125.001 17.6249 124.603 17.7899 124.188 17.7899H119.296V21.8164H125.557C125.98 21.8215 126.384 21.992 126.682 22.2914C126.98 22.5909 127.15 22.9954 127.154 23.4183C127.155 23.8446 126.988 24.2542 126.689 24.5578C126.39 24.8615 125.983 25.0347 125.557 25.0399L117.59 25.0359Z" fill="white"/>
</g>
<path d="M6.78906 43.5469H7.65625V51.8516C7.65625 52.5859 7.51562 53.2161 7.23438 53.7422C6.95833 54.2682 6.5651 54.6719 6.05469 54.9531C5.54948 55.2344 4.95312 55.375 4.26562 55.375C3.91667 55.375 3.55729 55.3203 3.1875 55.2109C2.82292 55.1068 2.47656 54.9453 2.14844 54.7266C1.82552 54.513 1.54948 54.2474 1.32031 53.9297L1.84375 53.3594C2.1875 53.776 2.55469 54.0807 2.94531 54.2734C3.33594 54.4714 3.75781 54.5703 4.21094 54.5703C4.7474 54.5703 5.20052 54.4635 5.57031 54.25C5.94531 54.0365 6.22917 53.7292 6.42188 53.3281C6.61979 52.9271 6.71875 52.4453 6.71875 51.8828V45.4062L6.78906 43.5469ZM0.851562 47.8594V47.6953C0.851562 47.0391 0.924479 46.4479 1.07031 45.9219C1.22135 45.3906 1.4375 44.9375 1.71875 44.5625C2 44.1823 2.34115 43.8932 2.74219 43.6953C3.14844 43.4922 3.60677 43.3906 4.11719 43.3906C4.60677 43.3906 5.04167 43.4714 5.42188 43.6328C5.80208 43.7943 6.13021 44.026 6.40625 44.3281C6.68229 44.6302 6.90365 44.9896 7.07031 45.4062C7.24219 45.8229 7.36719 46.2865 7.44531 46.7969V48.8828C7.38281 49.362 7.26823 49.8021 7.10156 50.2031C6.9349 50.599 6.71354 50.9453 6.4375 51.2422C6.16146 51.5339 5.82812 51.7604 5.4375 51.9219C5.05208 52.0781 4.60677 52.1562 4.10156 52.1562C3.59635 52.1562 3.14323 52.0521 2.74219 51.8438C2.34115 51.6354 2 51.3411 1.71875 50.9609C1.4375 50.5755 1.22135 50.1198 1.07031 49.5938C0.924479 49.0677 0.851562 48.4896 0.851562 47.8594ZM1.78906 47.6953V47.8594C1.78906 48.3542 1.83854 48.8125 1.9375 49.2344C2.03646 49.6562 2.1875 50.0234 2.39062 50.3359C2.59375 50.6484 2.85156 50.8932 3.16406 51.0703C3.47656 51.2474 3.84375 51.3359 4.26562 51.3359C4.80208 51.3359 5.2526 51.2344 5.61719 51.0312C5.98177 50.8229 6.27083 50.5495 6.48438 50.2109C6.69792 49.8672 6.85417 49.4922 6.95312 49.0859V46.6562C6.89583 46.3802 6.80729 46.099 6.6875 45.8125C6.57292 45.526 6.41146 45.263 6.20312 45.0234C6 44.7786 5.73958 44.5833 5.42188 44.4375C5.10938 44.2865 4.72917 44.2109 4.28125 44.2109C3.85417 44.2109 3.48177 44.2995 3.16406 44.4766C2.85156 44.6536 2.59375 44.901 2.39062 45.2188C2.1875 45.5312 2.03646 45.8984 1.9375 46.3203C1.83854 46.7422 1.78906 47.2005 1.78906 47.6953ZM11.1406 40V52H10.2109V40H11.1406ZM13.1797 47.9062V47.6484C13.1797 47.0339 13.2682 46.4661 13.4453 45.9453C13.6224 45.4245 13.875 44.974 14.2031 44.5938C14.5365 44.2135 14.9349 43.9193 15.3984 43.7109C15.862 43.4974 16.3776 43.3906 16.9453 43.3906C17.5182 43.3906 18.0365 43.4974 18.5 43.7109C18.9635 43.9193 19.362 44.2135 19.6953 44.5938C20.0286 44.974 20.2839 45.4245 20.4609 45.9453C20.638 46.4661 20.7266 47.0339 20.7266 47.6484V47.9062C20.7266 48.5208 20.638 49.0885 20.4609 49.6094C20.2839 50.125 20.0286 50.5729 19.6953 50.9531C19.3672 51.3333 18.9714 51.6302 18.5078 51.8438C18.0443 52.0521 17.5286 52.1562 16.9609 52.1562C16.388 52.1562 15.8698 52.0521 15.4062 51.8438C14.9427 51.6302 14.5443 51.3333 14.2109 50.9531C13.8776 50.5729 13.6224 50.125 13.4453 49.6094C13.2682 49.0885 13.1797 48.5208 13.1797 47.9062ZM14.1094 47.6484V47.9062C14.1094 48.3698 14.1719 48.8099 14.2969 49.2266C14.4219 49.638 14.6042 50.0052 14.8438 50.3281C15.0833 50.6458 15.3802 50.8958 15.7344 51.0781C16.0885 51.2604 16.4974 51.3516 16.9609 51.3516C17.4193 51.3516 17.8229 51.2604 18.1719 51.0781C18.526 50.8958 18.8229 50.6458 19.0625 50.3281C19.3021 50.0052 19.4818 49.638 19.6016 49.2266C19.7266 48.8099 19.7891 48.3698 19.7891 47.9062V47.6484C19.7891 47.1901 19.7266 46.7552 19.6016 46.3438C19.4818 45.9323 19.2995 45.5651 19.0547 45.2422C18.8151 44.9193 18.5182 44.6641 18.1641 44.4766C17.8099 44.2891 17.4036 44.1953 16.9453 44.1953C16.487 44.1953 16.0807 44.2891 15.7266 44.4766C15.3776 44.6641 15.0807 44.9193 14.8359 45.2422C14.5964 45.5651 14.4141 45.9323 14.2891 46.3438C14.1693 46.7552 14.1094 47.1901 14.1094 47.6484ZM22.6484 40H23.5859V50.3594L23.5234 52H22.6484V40ZM29.4688 47.6953V47.8594C29.4688 48.4896 29.3958 49.0677 29.25 49.5938C29.1042 50.1198 28.8932 50.5755 28.6172 50.9609C28.3411 51.3411 28.0026 51.6354 27.6016 51.8438C27.2057 52.0521 26.75 52.1562 26.2344 52.1562C25.7292 52.1562 25.2812 52.0781 24.8906 51.9219C24.5 51.7604 24.1667 51.5339 23.8906 51.2422C23.6146 50.9453 23.3932 50.599 23.2266 50.2031C23.0599 49.8021 22.9427 49.362 22.875 48.8828V46.7969C22.9531 46.2865 23.0781 45.8229 23.25 45.4062C23.4219 44.9896 23.6432 44.6302 23.9141 44.3281C24.1901 44.026 24.5182 43.7943 24.8984 43.6328C25.2839 43.4714 25.724 43.3906 26.2188 43.3906C26.7344 43.3906 27.1927 43.4922 27.5938 43.6953C28 43.8932 28.3411 44.1823 28.6172 44.5625C28.8932 44.9375 29.1042 45.3906 29.25 45.9219C29.3958 46.4479 29.4688 47.0391 29.4688 47.6953ZM28.5234 47.8594V47.6953C28.5234 47.2005 28.4766 46.7422 28.3828 46.3203C28.2891 45.8984 28.1406 45.5312 27.9375 45.2188C27.7396 44.901 27.4844 44.6536 27.1719 44.4766C26.8594 44.2995 26.4844 44.2109 26.0469 44.2109C25.599 44.2109 25.2161 44.2865 24.8984 44.4375C24.5859 44.5833 24.3255 44.7786 24.1172 45.0234C23.9141 45.263 23.7526 45.526 23.6328 45.8125C23.513 46.099 23.4245 46.3802 23.3672 46.6562V49.0859C23.4557 49.4766 23.6094 49.8438 23.8281 50.1875C24.0469 50.5312 24.3411 50.8099 24.7109 51.0234C25.0807 51.2318 25.5312 51.3359 26.0625 51.3359C26.4896 51.3359 26.8568 51.2474 27.1641 51.0703C27.4766 50.8932 27.7318 50.6484 27.9297 50.3359C28.1328 50.0234 28.2812 49.6562 28.375 49.2344C28.474 48.8125 28.5234 48.3542 28.5234 47.8594ZM36.6797 50.4844V46.125C36.6797 45.724 36.5964 45.3776 36.4297 45.0859C36.263 44.7943 36.0182 44.5703 35.6953 44.4141C35.3724 44.2578 34.974 44.1797 34.5 44.1797C34.0625 44.1797 33.6719 44.2578 33.3281 44.4141C32.9896 44.5651 32.7214 44.7708 32.5234 45.0312C32.3307 45.2865 32.2344 45.5703 32.2344 45.8828L31.2969 45.875C31.2969 45.5573 31.375 45.25 31.5312 44.9531C31.6875 44.6562 31.9089 44.3906 32.1953 44.1562C32.4818 43.9219 32.8229 43.737 33.2188 43.6016C33.6198 43.4609 34.0599 43.3906 34.5391 43.3906C35.1432 43.3906 35.6745 43.4922 36.1328 43.6953C36.5964 43.8984 36.9583 44.2031 37.2188 44.6094C37.4792 45.0156 37.6094 45.526 37.6094 46.1406V50.2266C37.6094 50.5182 37.6302 50.8203 37.6719 51.1328C37.7188 51.4453 37.7839 51.7031 37.8672 51.9062V52H36.875C36.8125 51.8125 36.763 51.5781 36.7266 51.2969C36.6953 51.0104 36.6797 50.7396 36.6797 50.4844ZM36.8984 47.0781L36.9141 47.7969H35.0781C34.599 47.7969 34.1693 47.8411 33.7891 47.9297C33.4141 48.013 33.0964 48.138 32.8359 48.3047C32.5755 48.4661 32.375 48.6615 32.2344 48.8906C32.099 49.1198 32.0312 49.3802 32.0312 49.6719C32.0312 49.974 32.1068 50.25 32.2578 50.5C32.4141 50.75 32.6328 50.9505 32.9141 51.1016C33.2005 51.2474 33.5391 51.3203 33.9297 51.3203C34.4505 51.3203 34.9089 51.224 35.3047 51.0312C35.7057 50.8385 36.0365 50.5859 36.2969 50.2734C36.5573 49.9609 36.7318 49.6198 36.8203 49.25L37.2266 49.7891C37.1589 50.0495 37.0339 50.3177 36.8516 50.5938C36.6745 50.8646 36.4427 51.1198 36.1562 51.3594C35.8698 51.5938 35.5312 51.7865 35.1406 51.9375C34.7552 52.0833 34.3177 52.1562 33.8281 52.1562C33.276 52.1562 32.7943 52.0521 32.3828 51.8438C31.9766 51.6354 31.6589 51.3516 31.4297 50.9922C31.2057 50.6276 31.0938 50.2161 31.0938 49.7578C31.0938 49.3411 31.1823 48.9688 31.3594 48.6406C31.5365 48.3073 31.7917 48.026 32.125 47.7969C32.4635 47.5625 32.8698 47.3854 33.3438 47.2656C33.8229 47.1406 34.3594 47.0781 34.9531 47.0781H36.8984ZM41.1562 40V52H40.2266V40H41.1562ZM50.8125 43.5469V44.3125H46.5781V43.5469H50.8125ZM48.1328 41.375H49.0625V49.9453C49.0625 50.3359 49.1146 50.6302 49.2188 50.8281C49.3229 51.026 49.4583 51.1589 49.625 51.2266C49.7917 51.2943 49.9714 51.3281 50.1641 51.3281C50.3047 51.3281 50.4401 51.3203 50.5703 51.3047C50.7005 51.2839 50.8177 51.263 50.9219 51.2422L50.9609 52.0312C50.8464 52.0677 50.6979 52.0964 50.5156 52.1172C50.3333 52.1432 50.151 52.1562 49.9688 52.1562C49.6094 52.1562 49.2917 52.0911 49.0156 51.9609C48.7396 51.8255 48.5234 51.5964 48.3672 51.2734C48.2109 50.9453 48.1328 50.5 48.1328 49.9375V41.375ZM52.1016 47.9062V47.6484C52.1016 47.0339 52.1901 46.4661 52.3672 45.9453C52.5443 45.4245 52.7969 44.974 53.125 44.5938C53.4583 44.2135 53.8568 43.9193 54.3203 43.7109C54.7839 43.4974 55.2995 43.3906 55.8672 43.3906C56.4401 43.3906 56.9583 43.4974 57.4219 43.7109C57.8854 43.9193 58.2839 44.2135 58.6172 44.5938C58.9505 44.974 59.2057 45.4245 59.3828 45.9453C59.5599 46.4661 59.6484 47.0339 59.6484 47.6484V47.9062C59.6484 48.5208 59.5599 49.0885 59.3828 49.6094C59.2057 50.125 58.9505 50.5729 58.6172 50.9531C58.2891 51.3333 57.8932 51.6302 57.4297 51.8438C56.9661 52.0521 56.4505 52.1562 55.8828 52.1562C55.3099 52.1562 54.7917 52.0521 54.3281 51.8438C53.8646 51.6302 53.4661 51.3333 53.1328 50.9531C52.7995 50.5729 52.5443 50.125 52.3672 49.6094C52.1901 49.0885 52.1016 48.5208 52.1016 47.9062ZM53.0312 47.6484V47.9062C53.0312 48.3698 53.0938 48.8099 53.2188 49.2266C53.3438 49.638 53.526 50.0052 53.7656 50.3281C54.0052 50.6458 54.3021 50.8958 54.6562 51.0781C55.0104 51.2604 55.4193 51.3516 55.8828 51.3516C56.3411 51.3516 56.7448 51.2604 57.0938 51.0781C57.4479 50.8958 57.7448 50.6458 57.9844 50.3281C58.224 50.0052 58.4036 49.638 58.5234 49.2266C58.6484 48.8099 58.7109 48.3698 58.7109 47.9062V47.6484C58.7109 47.1901 58.6484 46.7552 58.5234 46.3438C58.4036 45.9323 58.2214 45.5651 57.9766 45.2422C57.737 44.9193 57.4401 44.6641 57.0859 44.4766C56.7318 44.2891 56.3255 44.1953 55.8672 44.1953C55.4089 44.1953 55.0026 44.2891 54.6484 44.4766C54.2995 44.6641 54.0026 44.9193 53.7578 45.2422C53.5182 45.5651 53.3359 45.9323 53.2109 46.3438C53.0911 46.7552 53.0312 47.1901 53.0312 47.6484ZM67 50.0469V43.5469H67.9375V52H67.0391L67 50.0469ZM67.1719 48.4844L67.6562 48.4688C67.6562 49 67.5938 49.4896 67.4688 49.9375C67.3438 50.3854 67.1484 50.776 66.8828 51.1094C66.6172 51.4427 66.2734 51.7005 65.8516 51.8828C65.4297 52.0651 64.9219 52.1562 64.3281 52.1562C63.9167 52.1562 63.5391 52.099 63.1953 51.9844C62.8568 51.8646 62.5651 51.6771 62.3203 51.4219C62.0755 51.1667 61.8854 50.8359 61.75 50.4297C61.6198 50.0234 61.5547 49.5312 61.5547 48.9531V43.5469H62.4844V48.9688C62.4844 49.4219 62.5339 49.7995 62.6328 50.1016C62.737 50.4036 62.8776 50.6458 63.0547 50.8281C63.237 51.0104 63.4453 51.1406 63.6797 51.2188C63.9141 51.2969 64.1667 51.3359 64.4375 51.3359C65.125 51.3359 65.6667 51.2031 66.0625 50.9375C66.4635 50.6719 66.7474 50.3229 66.9141 49.8906C67.0859 49.4531 67.1719 48.9844 67.1719 48.4844ZM71.3125 44.9453V52H70.3828V43.5469H71.2891L71.3125 44.9453ZM74.3047 43.4844L74.2812 44.3438C74.1771 44.3281 74.0755 44.3151 73.9766 44.3047C73.8776 44.2943 73.7708 44.2891 73.6562 44.2891C73.25 44.2891 72.8932 44.3646 72.5859 44.5156C72.2839 44.6615 72.0286 44.8672 71.8203 45.1328C71.612 45.3932 71.4531 45.7005 71.3438 46.0547C71.2344 46.4036 71.1719 46.7786 71.1562 47.1797L70.8125 47.3125C70.8125 46.7604 70.8698 46.2474 70.9844 45.7734C71.099 45.2995 71.2734 44.8854 71.5078 44.5312C71.7474 44.1719 72.0469 43.8932 72.4062 43.6953C72.7708 43.4922 73.1979 43.3906 73.6875 43.3906C73.8073 43.3906 73.9245 43.401 74.0391 43.4219C74.1589 43.4375 74.2474 43.4583 74.3047 43.4844ZM76.8125 43.5469V52H75.8828V43.5469H76.8125ZM75.7188 41.1016C75.7188 40.9245 75.7734 40.776 75.8828 40.6562C75.9974 40.5312 76.1536 40.4688 76.3516 40.4688C76.5495 40.4688 76.7057 40.5312 76.8203 40.6562C76.9401 40.776 77 40.9245 77 41.1016C77 41.2734 76.9401 41.4219 76.8203 41.5469C76.7057 41.6667 76.5495 41.7266 76.3516 41.7266C76.1536 41.7266 75.9974 41.6667 75.8828 41.5469C75.7734 41.4219 75.7188 41.2734 75.7188 41.1016ZM84.4297 49.8438C84.4297 49.6146 84.3724 49.388 84.2578 49.1641C84.1432 48.9401 83.9219 48.7344 83.5938 48.5469C83.2708 48.3594 82.7943 48.2005 82.1641 48.0703C81.6953 47.9661 81.276 47.849 80.9062 47.7188C80.5417 47.5885 80.2344 47.4323 79.9844 47.25C79.7344 47.0677 79.5443 46.849 79.4141 46.5938C79.2839 46.3385 79.2188 46.0365 79.2188 45.6875C79.2188 45.375 79.2865 45.0807 79.4219 44.8047C79.5625 44.5234 79.7604 44.2786 80.0156 44.0703C80.276 43.8568 80.5885 43.6901 80.9531 43.5703C81.3229 43.4505 81.737 43.3906 82.1953 43.3906C82.8464 43.3906 83.4036 43.5026 83.8672 43.7266C84.3359 43.9453 84.6927 44.2448 84.9375 44.625C85.1875 45.0052 85.3125 45.4349 85.3125 45.9141H84.3828C84.3828 45.6224 84.2969 45.3464 84.125 45.0859C83.9583 44.8255 83.7109 44.612 83.3828 44.4453C83.0599 44.2786 82.6641 44.1953 82.1953 44.1953C81.7109 44.1953 81.3177 44.2682 81.0156 44.4141C80.7135 44.5599 80.4922 44.7448 80.3516 44.9688C80.2161 45.1927 80.1484 45.4245 80.1484 45.6641C80.1484 45.8516 80.1771 46.0234 80.2344 46.1797C80.2969 46.3307 80.4062 46.4714 80.5625 46.6016C80.724 46.7318 80.9531 46.8542 81.25 46.9688C81.5469 47.0833 81.9323 47.1953 82.4062 47.3047C83.0885 47.4557 83.6458 47.6406 84.0781 47.8594C84.5156 48.0729 84.8385 48.3385 85.0469 48.6562C85.2552 48.9688 85.3594 49.349 85.3594 49.7969C85.3594 50.1458 85.2865 50.4661 85.1406 50.7578C84.9948 51.0443 84.7839 51.2917 84.5078 51.5C84.237 51.7083 83.9089 51.8698 83.5234 51.9844C83.1432 52.099 82.7161 52.1562 82.2422 52.1562C81.5286 52.1562 80.9245 52.0391 80.4297 51.8047C79.9401 51.5651 79.5677 51.2526 79.3125 50.8672C79.0625 50.4766 78.9375 50.0625 78.9375 49.625H79.8672C79.8984 50.0625 80.0365 50.4089 80.2812 50.6641C80.526 50.9141 80.8255 51.0911 81.1797 51.1953C81.5391 51.2995 81.8932 51.3516 82.2422 51.3516C82.7214 51.3516 83.1224 51.2812 83.4453 51.1406C83.7682 51 84.013 50.8151 84.1797 50.5859C84.3464 50.3568 84.4297 50.1094 84.4297 49.8438ZM88.3594 45.2969V52H87.4219V43.5469H88.3203L88.3594 45.2969ZM88.1875 47.25L87.7344 47.0156C87.7656 46.5156 87.8594 46.0469 88.0156 45.6094C88.1771 45.1719 88.401 44.7865 88.6875 44.4531C88.974 44.1198 89.3177 43.8594 89.7188 43.6719C90.1198 43.4844 90.5755 43.3906 91.0859 43.3906C91.4974 43.3906 91.8698 43.4479 92.2031 43.5625C92.5417 43.6719 92.8281 43.8464 93.0625 44.0859C93.3021 44.3203 93.487 44.6276 93.6172 45.0078C93.7474 45.388 93.8125 45.8438 93.8125 46.375V52H92.8828V46.4062C92.8828 45.8438 92.7943 45.4036 92.6172 45.0859C92.4453 44.7682 92.2031 44.5417 91.8906 44.4062C91.5833 44.2708 91.2266 44.2031 90.8203 44.2031C90.3411 44.2031 89.9349 44.3021 89.6016 44.5C89.2734 44.6927 89.0052 44.9453 88.7969 45.2578C88.5938 45.5651 88.4427 45.8958 88.3438 46.25C88.2448 46.599 88.1927 46.9323 88.1875 47.25ZM93.8047 46.5156L93.1797 46.5312C93.2057 46.1198 93.2995 45.7266 93.4609 45.3516C93.6276 44.9766 93.8542 44.6432 94.1406 44.3516C94.4271 44.0547 94.7682 43.8203 95.1641 43.6484C95.5651 43.4766 96.0156 43.3906 96.5156 43.3906C96.9531 43.3906 97.3438 43.4505 97.6875 43.5703C98.0312 43.6849 98.3203 43.8698 98.5547 44.125C98.7943 44.375 98.9766 44.6953 99.1016 45.0859C99.2266 45.4766 99.2891 45.9453 99.2891 46.4922V52H98.3516V46.4844C98.3516 45.8854 98.263 45.4219 98.0859 45.0938C97.9141 44.7604 97.6745 44.5286 97.3672 44.3984C97.0599 44.2682 96.7005 44.2031 96.2891 44.2031C95.8828 44.2083 95.526 44.2839 95.2188 44.4297C94.9115 44.5703 94.6536 44.7578 94.4453 44.9922C94.2422 45.2214 94.0859 45.4688 93.9766 45.7344C93.8724 46 93.8151 46.2604 93.8047 46.5156ZM106.453 45.2969V52H105.516V43.5469H106.414L106.453 45.2969ZM106.281 47.25L105.828 47.0156C105.859 46.5156 105.953 46.0469 106.109 45.6094C106.271 45.1719 106.495 44.7865 106.781 44.4531C107.068 44.1198 107.411 43.8594 107.812 43.6719C108.214 43.4844 108.669 43.3906 109.18 43.3906C109.591 43.3906 109.964 43.4479 110.297 43.5625C110.635 43.6719 110.922 43.8464 111.156 44.0859C111.396 44.3203 111.581 44.6276 111.711 45.0078C111.841 45.388 111.906 45.8438 111.906 46.375V52H110.977V46.4062C110.977 45.8438 110.888 45.4036 110.711 45.0859C110.539 44.7682 110.297 44.5417 109.984 44.4062C109.677 44.2708 109.32 44.2031 108.914 44.2031C108.435 44.2031 108.029 44.3021 107.695 44.5C107.367 44.6927 107.099 44.9453 106.891 45.2578C106.688 45.5651 106.536 45.8958 106.438 46.25C106.339 46.599 106.286 46.9323 106.281 47.25ZM111.898 46.5156L111.273 46.5312C111.299 46.1198 111.393 45.7266 111.555 45.3516C111.721 44.9766 111.948 44.6432 112.234 44.3516C112.521 44.0547 112.862 43.8203 113.258 43.6484C113.659 43.4766 114.109 43.3906 114.609 43.3906C115.047 43.3906 115.438 43.4505 115.781 43.5703C116.125 43.6849 116.414 43.8698 116.648 44.125C116.888 44.375 117.07 44.6953 117.195 45.0859C117.32 45.4766 117.383 45.9453 117.383 46.4922V52H116.445V46.4844C116.445 45.8854 116.357 45.4219 116.18 45.0938C116.008 44.7604 115.768 44.5286 115.461 44.3984C115.154 44.2682 114.794 44.2031 114.383 44.2031C113.977 44.2083 113.62 44.2839 113.312 44.4297C113.005 44.5703 112.747 44.7578 112.539 44.9922C112.336 45.2214 112.18 45.4688 112.07 45.7344C111.966 46 111.909 46.2604 111.898 46.5156ZM123.023 52.1562C122.471 52.1562 121.964 52.0547 121.5 51.8516C121.042 51.6484 120.641 51.362 120.297 50.9922C119.958 50.6224 119.695 50.1849 119.508 49.6797C119.326 49.1693 119.234 48.612 119.234 48.0078V47.6719C119.234 47.0208 119.331 46.4323 119.523 45.9062C119.716 45.3802 119.982 44.9297 120.32 44.5547C120.659 44.1797 121.044 43.8932 121.477 43.6953C121.914 43.4922 122.372 43.3906 122.852 43.3906C123.388 43.3906 123.865 43.487 124.281 43.6797C124.698 43.8672 125.047 44.1354 125.328 44.4844C125.615 44.8281 125.831 45.237 125.977 45.7109C126.122 46.1797 126.195 46.6979 126.195 47.2656V47.8359H119.797V47.0391H125.266V46.9297C125.255 46.4557 125.159 46.013 124.977 45.6016C124.799 45.1849 124.534 44.8464 124.18 44.5859C123.826 44.3255 123.383 44.1953 122.852 44.1953C122.456 44.1953 122.091 44.2786 121.758 44.4453C121.43 44.612 121.146 44.8516 120.906 45.1641C120.672 45.4714 120.49 45.8385 120.359 46.2656C120.234 46.6875 120.172 47.1562 120.172 47.6719V48.0078C120.172 48.4766 120.24 48.9141 120.375 49.3203C120.516 49.7214 120.714 50.0755 120.969 50.3828C121.229 50.6901 121.536 50.9297 121.891 51.1016C122.245 51.2734 122.635 51.3594 123.062 51.3594C123.562 51.3594 124.005 51.2682 124.391 51.0859C124.776 50.8984 125.122 50.6042 125.43 50.2031L126.016 50.6562C125.833 50.9271 125.604 51.1771 125.328 51.4062C125.057 51.6354 124.732 51.8177 124.352 51.9531C123.971 52.0885 123.529 52.1562 123.023 52.1562ZM133.531 50.3594V40H134.469V52H133.594L133.531 50.3594ZM127.664 47.8594V47.6953C127.664 47.0391 127.74 46.4479 127.891 45.9219C128.042 45.3906 128.258 44.9375 128.539 44.5625C128.826 44.1823 129.169 43.8932 129.57 43.6953C129.971 43.4922 130.424 43.3906 130.93 43.3906C131.424 43.3906 131.862 43.4714 132.242 43.6328C132.622 43.7943 132.948 44.026 133.219 44.3281C133.495 44.6302 133.716 44.9896 133.883 45.4062C134.055 45.8229 134.18 46.2865 134.258 46.7969V48.8828C134.195 49.362 134.081 49.8021 133.914 50.2031C133.747 50.599 133.526 50.9453 133.25 51.2422C132.974 51.5339 132.641 51.7604 132.25 51.9219C131.865 52.0781 131.419 52.1562 130.914 52.1562C130.414 52.1562 129.964 52.0521 129.562 51.8438C129.161 51.6354 128.82 51.3411 128.539 50.9609C128.258 50.5755 128.042 50.1198 127.891 49.5938C127.74 49.0677 127.664 48.4896 127.664 47.8594ZM128.602 47.6953V47.8594C128.602 48.3542 128.651 48.8125 128.75 49.2344C128.849 49.6562 129 50.0234 129.203 50.3359C129.406 50.6484 129.664 50.8932 129.977 51.0703C130.289 51.2474 130.659 51.3359 131.086 51.3359C131.622 51.3359 132.073 51.2344 132.438 51.0312C132.802 50.8229 133.094 50.5495 133.312 50.2109C133.531 49.8672 133.69 49.4922 133.789 49.0859V46.6562C133.727 46.3802 133.635 46.099 133.516 45.8125C133.396 45.526 133.232 45.263 133.023 45.0234C132.82 44.7786 132.56 44.5833 132.242 44.4375C131.93 44.2865 131.549 44.2109 131.102 44.2109C130.669 44.2109 130.297 44.2995 129.984 44.4766C129.672 44.6536 129.411 44.901 129.203 45.2188C129 45.5312 128.849 45.8984 128.75 46.3203C128.651 46.7422 128.602 47.2005 128.602 47.6953ZM137.969 43.5469V52H137.039V43.5469H137.969ZM136.875 41.1016C136.875 40.9245 136.93 40.776 137.039 40.6562C137.154 40.5312 137.31 40.4688 137.508 40.4688C137.706 40.4688 137.862 40.5312 137.977 40.6562C138.096 40.776 138.156 40.9245 138.156 41.1016C138.156 41.2734 138.096 41.4219 137.977 41.5469C137.862 41.6667 137.706 41.7266 137.508 41.7266C137.31 41.7266 137.154 41.6667 137.039 41.5469C136.93 41.4219 136.875 41.2734 136.875 41.1016ZM145.664 50.4844V46.125C145.664 45.724 145.581 45.3776 145.414 45.0859C145.247 44.7943 145.003 44.5703 144.68 44.4141C144.357 44.2578 143.958 44.1797 143.484 44.1797C143.047 44.1797 142.656 44.2578 142.312 44.4141C141.974 44.5651 141.706 44.7708 141.508 45.0312C141.315 45.2865 141.219 45.5703 141.219 45.8828L140.281 45.875C140.281 45.5573 140.359 45.25 140.516 44.9531C140.672 44.6562 140.893 44.3906 141.18 44.1562C141.466 43.9219 141.807 43.737 142.203 43.6016C142.604 43.4609 143.044 43.3906 143.523 43.3906C144.128 43.3906 144.659 43.4922 145.117 43.6953C145.581 43.8984 145.943 44.2031 146.203 44.6094C146.464 45.0156 146.594 45.526 146.594 46.1406V50.2266C146.594 50.5182 146.615 50.8203 146.656 51.1328C146.703 51.4453 146.768 51.7031 146.852 51.9062V52H145.859C145.797 51.8125 145.747 51.5781 145.711 51.2969C145.68 51.0104 145.664 50.7396 145.664 50.4844ZM145.883 47.0781L145.898 47.7969H144.062C143.583 47.7969 143.154 47.8411 142.773 47.9297C142.398 48.013 142.081 48.138 141.82 48.3047C141.56 48.4661 141.359 48.6615 141.219 48.8906C141.083 49.1198 141.016 49.3802 141.016 49.6719C141.016 49.974 141.091 50.25 141.242 50.5C141.398 50.75 141.617 50.9505 141.898 51.1016C142.185 51.2474 142.523 51.3203 142.914 51.3203C143.435 51.3203 143.893 51.224 144.289 51.0312C144.69 50.8385 145.021 50.5859 145.281 50.2734C145.542 49.9609 145.716 49.6198 145.805 49.25L146.211 49.7891C146.143 50.0495 146.018 50.3177 145.836 50.5938C145.659 50.8646 145.427 51.1198 145.141 51.3594C144.854 51.5938 144.516 51.7865 144.125 51.9375C143.74 52.0833 143.302 52.1562 142.812 52.1562C142.26 52.1562 141.779 52.0521 141.367 51.8438C140.961 51.6354 140.643 51.3516 140.414 50.9922C140.19 50.6276 140.078 50.2161 140.078 49.7578C140.078 49.3411 140.167 48.9688 140.344 48.6406C140.521 48.3073 140.776 48.026 141.109 47.7969C141.448 47.5625 141.854 47.3854 142.328 47.2656C142.807 47.1406 143.344 47.0781 143.938 47.0781H145.883Z" fill="#0A0A0A"/>
<defs>
<clipPath id="clip0_2128_290">
<rect width="160.744" height="36" fill="white"/>
</clipPath>
</defs>
</svg>
