<svg width="52" height="52" viewBox="0 0 52 52" fill="none" xmlns="http://www.w3.org/2000/svg">
<path d="M39.0395 15.6635C34.943 22.634 24.089 35.1995 10.5845 37.226C10.4705 37.244 10.3595 37.2515 10.247 37.2515C9.152 37.2515 8.192 36.452 8.0255 35.336C7.841 34.1075 8.687 32.9615 9.917 32.777C21.527 31.0355 31.232 19.766 34.8815 13.841L32.4545 12.776C31.457 12.338 31.4855 10.913 32.501 10.517L38.558 8.1515C39.4565 7.8005 40.4675 8.2445 40.8185 9.143L43.181 15.2C43.577 16.2155 42.548 17.2025 41.5505 16.7645L39.0395 15.6635ZM8 17C8 12.0365 12.0365 8 17 8C21.9635 8 26 12.0365 26 17C26 21.9635 21.9635 26 17 26C12.0365 26 8 21.9635 8 17ZM14 14C14 15.6575 15.3425 17 17 17C18.6575 17 20 15.6575 20 14C20 12.3425 18.6575 11 17 11C15.3425 11 14 12.3425 14 14ZM12.551 20.99C13.6505 22.214 15.227 23 17 23C18.773 23 20.3495 22.214 21.449 20.99C20.522 19.5005 18.884 18.5 17 18.5C15.116 18.5 13.478 19.5005 12.551 20.99ZM41.75 21.5C40.5065 21.5 39.5 22.508 39.5 23.75V41.75C39.5 42.992 40.5065 44 41.75 44C42.9935 44 44 42.992 44 41.75V23.75C44 22.508 42.9935 21.5 41.75 21.5ZM34.25 27.5C33.0065 27.5 32 28.508 32 29.75V41.75C32 42.992 33.0065 44 34.25 44C35.4935 44 36.5 42.992 36.5 41.75V29.75C36.5 28.508 35.4935 27.5 34.25 27.5ZM26.75 33.5C25.5065 33.5 24.5 34.508 24.5 35.75V41.75C24.5 42.992 25.5065 44 26.75 44C27.9935 44 29 42.992 29 41.75V35.75C29 34.508 27.9935 33.5 26.75 33.5ZM19.25 38C18.0065 38 17 39.008 17 40.25V41.75C17 42.992 18.0065 44 19.25 44C20.4935 44 21.5 42.992 21.5 41.75V40.25C21.5 39.008 20.4935 38 19.25 38ZM9.5 41.75C9.5 42.992 10.508 44 11.75 44C12.992 44 14 42.992 14 41.75C14 40.508 12.992 39.5 11.75 39.5C10.508 39.5 9.5 40.508 9.5 41.75Z" fill="#FD6A05"/>
</svg>
