<svg width="52" height="52" viewBox="0 0 52 52" fill="none" xmlns="http://www.w3.org/2000/svg">
<path d="M35.75 8H16.25C11.7005 8 8 12.0369 8 17V35C8 39.9631 11.7005 44 16.25 44H35.75C40.2995 44 44 39.9631 44 35V17C44 12.0369 40.2995 8 35.75 8ZM39.5 17.8182H33.6815L37.658 13.4802C38.759 14.1936 39.5 15.5044 39.5 17V17.8182ZM21.6815 17.8182L26.1815 12.9091H31.8185L27.3185 17.8182H21.6815ZM16.25 12.9091H19.8185L15.3185 17.8182H12.5V17C12.5 14.7451 14.183 12.9091 16.25 12.9091ZM35.75 39.0909H16.25C14.183 39.0909 12.5 37.2549 12.5 35V22.7273H39.5V35C39.5 37.2549 37.817 39.0909 35.75 39.0909ZM30.5705 32.2182L23.6195 36.2764C22.6865 36.8867 21.5 36.1536 21.5 34.9673V26.8493C21.5 25.6629 22.6865 24.9298 23.6195 25.5402L30.5705 29.5984C31.4765 30.1907 31.4765 31.6242 30.5705 32.2165V32.2182Z" fill="#FD6A05"/>
</svg>
