<svg width="52" height="52" viewBox="0 0 52 52" fill="none" xmlns="http://www.w3.org/2000/svg">
<path d="M17 8C12.0365 8 8 12.0365 8 17C8 21.9635 12.0365 26 17 26C21.9635 26 26 21.9635 26 17C26 12.0365 21.9635 8 17 8ZM17 11C18.6575 11 20 12.3425 20 14C20 15.6575 18.6575 17 17 17C15.3425 17 14 15.6575 14 14C14 12.3425 15.3425 11 17 11ZM17 23C15.2285 23 13.6505 22.214 12.551 20.99C13.478 19.5005 15.116 18.5 17 18.5C18.884 18.5 20.522 19.5005 21.449 20.99C20.3495 22.214 18.773 23 17 23ZM35 26C30.0365 26 26 30.0365 26 35C26 39.9635 30.0365 44 35 44C39.9635 44 44 39.9635 44 35C44 30.0365 39.9635 26 35 26ZM35 29C36.6575 29 38 30.3425 38 32C38 33.6575 36.6575 35 35 35C33.3425 35 32 33.6575 32 32C32 30.3425 33.3425 29 35 29ZM35 41C33.2285 41 31.6505 40.214 30.551 38.99C31.478 37.5005 33.116 36.5 35 36.5C36.884 36.5 38.522 37.5005 39.449 38.99C38.3495 40.214 36.773 41 35 41ZM29 14.75C29 13.5065 30.008 12.5 31.25 12.5H32C36.1355 12.5 39.5 15.8645 39.5 20V20.75C39.5 21.9935 38.492 23 37.25 23C36.008 23 35 21.9935 35 20.75V20C35 18.3455 33.6545 17 32 17H31.25C30.008 17 29 15.9935 29 14.75ZM23 37.25C23 38.4935 21.992 39.5 20.75 39.5H20C15.8645 39.5 12.5 36.1355 12.5 32V31.25C12.5 30.0065 13.508 29 14.75 29C15.992 29 17 30.0065 17 31.25V32C17 33.6545 18.3455 35 20 35H20.75C21.992 35 23 36.0065 23 37.25Z" fill="#FD6A05"/>
</svg>
