<svg width="52" height="52" viewBox="0 0 52 52" fill="none" xmlns="http://www.w3.org/2000/svg">
<path d="M37.9999 21.5109H35.5608L29.4722 10.7701C28.9959 9.8699 28.2657 9.12925 27.3722 8.63994C26.4786 8.15063 25.4611 7.93417 24.4456 8.01741C23.7395 8.03452 23.0466 8.21218 22.4195 8.53691C21.7923 8.86163 21.2474 9.32488 20.8261 9.8915C20.3805 10.4849 20.0819 11.1754 19.9549 11.9064C19.828 12.6375 19.8762 13.3882 20.0956 14.097L22.5571 21.5109H20.1841C19.6912 21.5118 19.203 21.4153 18.7476 21.227C18.2922 21.0387 17.8786 20.7622 17.5305 20.4134L15.405 18.2889C14.749 17.6329 13.9009 17.203 12.9838 17.0614C12.0667 16.9199 11.1283 17.0741 10.3049 17.5018C9.79435 17.7653 9.34302 18.1301 8.97855 18.5741C8.61409 19.018 8.34417 19.5317 8.18535 20.0836C7.85169 21.2155 7.97165 22.4328 8.51986 23.4779C8.51986 23.4779 10.9724 29.2726 11.0174 29.3506C11.7405 30.6113 12.7834 31.6591 14.0409 32.3885C15.2984 33.1179 16.7261 33.503 18.18 33.5051H22.1821L20.2996 37.6596C20.0336 38.3696 19.9436 39.1334 20.0373 39.8858C20.131 40.6382 20.4057 41.3566 20.8378 41.9798C21.2699 42.6029 21.8465 43.1122 22.5185 43.464C23.1904 43.8158 23.9376 43.9997 24.6962 44C25.611 44.0001 26.5101 43.7612 27.3042 43.307C28.0982 42.8529 28.7598 42.1992 29.2232 41.4108L34.9848 33.5051H37.9999C39.5912 33.5051 41.1174 32.8732 42.2426 31.7486C43.3678 30.6239 44 29.0985 44 27.508C44 25.9174 43.3678 24.3921 42.2426 23.2674C41.1174 22.1427 39.5912 21.5109 37.9999 21.5109ZM24.3931 12.7626C24.3856 12.7371 24.3496 12.5152 24.5792 12.5152H24.8672C25.0075 12.5093 25.1463 12.5465 25.2649 12.6218C25.3834 12.6971 25.476 12.807 25.5302 12.9365L30.3888 21.5109H27.2972L24.3931 12.7626ZM37.9999 29.0073H33.8403C33.4858 29.0074 33.1363 29.0912 32.8204 29.252C32.5044 29.4128 32.231 29.6459 32.0223 29.9323C32.0223 29.9323 25.3997 39.0269 25.3547 39.1109C25.2902 39.2292 25.1951 39.328 25.0792 39.3969C24.9633 39.4658 24.831 39.5021 24.6962 39.5022C24.4546 39.5022 24.4966 39.3208 24.4876 39.3208L27.7187 32.1842C27.874 31.8417 27.9408 31.4658 27.9131 31.0908C27.8855 30.7158 27.7642 30.3537 27.5603 30.0377C27.3565 29.7216 27.0766 29.4617 26.7463 29.2817C26.4161 29.1017 26.0459 29.0073 25.6697 29.0073H18.18C17.5394 29.0061 16.9097 28.8415 16.3506 28.529C15.7914 28.2166 15.3214 27.7665 14.985 27.2216L12.7994 22.0416L14.3505 23.5934C15.115 24.3612 16.0241 24.97 17.0254 25.3846C18.0267 25.7992 19.1003 26.0113 20.1841 26.0087H37.9999C38.3977 26.0087 38.7793 26.1667 39.0606 26.4478C39.3419 26.729 39.4999 27.1103 39.4999 27.508C39.4999 27.9056 39.3419 28.287 39.0606 28.5681C38.7793 28.8493 38.3977 29.0073 37.9999 29.0073Z" fill="#FD6A05"/>
</svg>
