<svg width="52" height="52" viewBox="0 0 52 52" fill="none" xmlns="http://www.w3.org/2000/svg">
<path d="M20 41.75C20 42.9935 18.9935 44 17.75 44H16.25C11.7005 44 8 40.2995 8 35.75V34.25C8 33.0065 9.0065 32 10.25 32C11.4935 32 12.5 33.0065 12.5 34.25V35.75C12.5 37.817 14.183 39.5 16.25 39.5H17.75C18.9935 39.5 20 40.5065 20 41.75ZM41.75 32C40.5065 32 39.5 33.0065 39.5 34.25V35.75C39.5 37.817 37.817 39.5 35.75 39.5H34.25C33.0065 39.5 32 40.5065 32 41.75C32 42.9935 33.0065 44 34.25 44H35.75C40.2995 44 44 40.2995 44 35.75V34.25C44 33.0065 42.9935 32 41.75 32ZM35.75 8H34.25C33.0065 8 32 9.0065 32 10.25C32 11.4935 33.0065 12.5 34.25 12.5H35.75C37.817 12.5 39.5 14.183 39.5 16.25V17.75C39.5 18.9935 40.5065 20 41.75 20C42.9935 20 44 18.9935 44 17.75V16.25C44 11.7005 40.2995 8 35.75 8ZM10.25 20C11.4935 20 12.5 18.9935 12.5 17.75V16.25C12.5 14.183 14.183 12.5 16.25 12.5H17.75C18.9935 12.5 20 11.4935 20 10.25C20 9.0065 18.9935 8 17.75 8H16.25C11.7005 8 8 11.7005 8 16.25V17.75C8 18.9935 9.0065 20 10.25 20ZM20.75 15.5H19.25C17.183 15.5 15.5 17.183 15.5 19.25V20.75C15.5 22.817 17.183 24.5 19.25 24.5H20.75C22.817 24.5 24.5 22.817 24.5 20.75V19.25C24.5 17.183 22.817 15.5 20.75 15.5ZM31.25 24.5H32.75C34.817 24.5 36.5 22.817 36.5 20.75V19.25C36.5 17.183 34.817 15.5 32.75 15.5H31.25C29.183 15.5 27.5 17.183 27.5 19.25V20.75C27.5 22.817 29.183 24.5 31.25 24.5ZM20.75 27.5H19.25C17.183 27.5 15.5 29.183 15.5 31.25V32.75C15.5 34.817 17.183 36.5 19.25 36.5H20.75C22.817 36.5 24.5 34.817 24.5 32.75V31.25C24.5 29.183 22.817 27.5 20.75 27.5ZM32 29.75C32 30.992 33.008 32 34.25 32C35.492 32 36.5 30.992 36.5 29.75C36.5 28.508 35.492 27.5 34.25 27.5C33.008 27.5 32 28.508 32 29.75ZM29.75 32C28.508 32 27.5 33.008 27.5 34.25C27.5 35.492 28.508 36.5 29.75 36.5C30.992 36.5 32 35.492 32 34.25C32 33.008 30.992 32 29.75 32Z" fill="#FD6A05"/>
</svg>
