<svg width="52" height="52" viewBox="0 0 52 52" fill="none" xmlns="http://www.w3.org/2000/svg">
<path d="M26 8C16.0745 8 8 16.1008 8 26.0587C8.9045 49.9834 43.1 49.9774 44 26.0587C44 16.1008 35.9255 8 26 8ZM26 39.6027C18.5555 39.6027 12.5 33.5275 12.5 26.0587C13.178 8.11588 38.8235 8.12039 39.5 26.0587C39.5 33.5275 33.4445 39.6027 26 39.6027ZM32 29.69C32 32.0963 30.422 34.14 28.25 34.8337V35.8405C28.199 38.8081 23.801 38.8066 23.75 35.8405V34.9691C22.3175 34.6591 21.0515 33.7547 20.3015 32.456C19.6805 31.377 20.048 29.9955 21.1235 29.371C22.1975 28.7479 23.5745 29.1166 24.1985 30.1956C24.335 30.4319 24.578 30.5734 24.8495 30.5734H26.621C27.5645 30.6005 27.8345 29.1934 26.948 28.8698L23.384 27.4402C18.719 25.702 19.058 18.6441 23.7515 17.2837V16.2769C23.8025 13.3093 28.202 13.3108 28.2515 16.2769V17.1482C29.684 17.4582 30.95 18.3627 31.7 19.6614C32.321 20.7404 31.9535 22.1219 30.878 22.7449C29.804 23.3679 28.4255 22.9992 27.803 21.9217C27.6665 21.6855 27.4235 21.544 27.152 21.544H25.3805C24.437 21.5169 24.167 22.924 25.0535 23.2476L28.6175 24.6772C30.6725 25.5019 32 27.4688 32 29.69Z" fill="#FD6A05"/>
</svg>
