<?xml version="1.0" encoding="UTF-8"?>
<svg id="_Слой_2" data-name="Слой 2" xmlns="http://www.w3.org/2000/svg" viewBox="0 0 1165.66 585.12">
  <defs>
    <style>
      .cls-1 {
        fill: #fff;
      }

      .cls-2 {
        fill: #fd6a05;
      }
    </style>
  </defs>
  <g id="_Слой_2-2" data-name="Слой 2">
    <g>
      <path class="cls-2" d="m747.22,585.12H58.78c-32.46,0-58.78-26.32-58.78-58.78V58.78C0,26.32,26.32,0,58.78,0h688.44c11.56,0,22.86,3.41,32.49,9.79l359.66,233.78c35.06,23.25,35.06,74.72,0,97.97l-359.66,233.78c-9.63,6.39-20.93,9.79-32.49,9.79"/>
      <path class="cls-1" d="m914.54,267.59l-175.57-101.36c-19.22-11.1-43.24,2.77-43.24,24.97v202.72c0,22.19,24.03,36.06,43.24,24.97l175.57-101.36c19.22-11.1,19.22-38.84,0-49.94"/>
      <path class="cls-1" d="m534.1,166.01c0,2.7-.45,5.85-1.35,9.45l-67.47,250.08c-6.29,23.84-24.29,35.53-46.33,35.53s-40.03-11.69-46.33-36.88c-32.39-131.79-42.28-173.17-45.43-206.46-4.04,35.09-17.09,91.76-48.12,207.81-6.29,23.84-23.39,35.53-45.43,35.53s-39.58-12.14-45.87-35.08l-67.02-248.73c-.9-3.15-1.35-6.29-1.35-9.45,0-19.34,17.54-31.93,34.63-31.93,12.14,0,26.54,6.3,31.49,25.64,34.19,136.29,44.98,183.52,51.28,221.3,5.85-39.59,17.54-86.81,48.12-212.3,6.29-25.19,23.39-35.08,43.63-35.08,22.04,0,38.23,11.69,44.08,34.63,30.58,120.54,43.18,172.72,49.03,209.15,4.94-36.43,16.19-84.11,49.03-218.6,4.5-18.44,17.54-24.74,30.58-24.74,15.74,0,32.84,11.25,32.84,30.14"/>
    </g>
  </g>
</svg>